# xmcd CD database file
#
# Track frame offsets:
#	150
#	15622
#	30207
#	45254
#	59523
#	75556
#	89193
#	104415
#	115607
#	128844
#	144841
#	160051
#	177038
#	191809
#
# Disc length: 2736 seconds
#
# Revision: 0
# Processed by: cddbd v1.5.2PL0 Copyright (c) Steve Scherf et al.
# Submitted via: CDex 1.60beta1-cs1
#
DISCID=a90aae0e
DTITLE=Maysa (Matarazzo) Monjardim - 'Quando fala o coração' [CD 1de2)
DYEAR=2008
DGENRE=Jazz
TTITLE0=Resposta
TTITLE1=Tarde triste
TTITLE2=Adeus
TTITLE3=Ouça
TTITLE4=Franqueza
TTITLE5=O que
TTITLE6=Se todos fossem iguais a você
TTITLE7=To the end of the earth
TTITLE8=Bronzes e cristais
TTITLE9=Por causa de você
TTITLE10=Suas mãos
TTITLE11=Bom dia, tristeza
TTITLE12=Eu sei que vou te amar
TTITLE13=Hino ao amor (L'hymne à l'amour)
EXTD=YEAR: 2008
EXTT0=
EXTT1=
EXTT2=
EXTT3=
EXTT4=
EXTT5=
EXTT6=
EXTT7=
EXTT8=
EXTT9=
EXTT10=
EXTT11=
EXTT12=
EXTT13=
PLAYORDER=
